<?xml version="1.0" encoding="UTF-8"?>
<svg version="1.1" xmlns="http://www.w3.org/2000/svg" width="416" height="416">
<path d="M0 0 C1.47081546 1.28629115 2.93681623 2.57808141 4.40258789 3.87011719 C5.24563477 4.59070312 6.08868164 5.31128906 6.95727539 6.05371094 C11.90995621 10.33102619 16.19952029 14.86565333 20.40258789 19.87011719 C21.2134082 20.78148438 22.02422852 21.69285156 22.85961914 22.63183594 C30.64075185 31.44157432 37.16342268 40.92093989 43.40258789 50.87011719 C43.81250977 51.51787109 44.22243164 52.165625 44.64477539 52.83300781 C71.42872309 95.75023945 79.72801521 152.65780851 69.0871582 201.92285156 C60.53080361 238.76033824 44.3682208 270.54743627 19.40258789 298.87011719 C18.68200195 299.71316406 17.96141602 300.55621094 17.21899414 301.42480469 C12.94167889 306.37748551 8.40705175 310.66704959 3.40258789 314.87011719 C2.4912207 315.6809375 1.57985352 316.49175781 0.64086914 317.32714844 C-8.16886924 325.10828115 -17.64823481 331.63095197 -27.59741211 337.87011719 C-28.24516602 338.28003906 -28.89291992 338.68996094 -29.56030273 339.11230469 C-72.47753437 365.89625239 -129.38510343 374.19554451 -178.65014648 363.5546875 C-215.48763316 354.99833291 -247.27473119 338.8357501 -275.59741211 313.87011719 C-276.86198242 312.78923828 -276.86198242 312.78923828 -278.15209961 311.68652344 C-283.10478043 307.40920818 -287.39434451 302.87458104 -291.59741211 297.87011719 C-292.40823242 296.95875 -293.21905273 296.04738281 -294.05444336 295.10839844 C-301.83557607 286.29866005 -308.3582469 276.81929448 -314.59741211 266.87011719 C-315.21229492 265.89848633 -315.21229492 265.89848633 -315.83959961 264.90722656 C-342.62354731 221.98999492 -350.92283943 165.08242587 -340.28198242 115.81738281 C-331.72562783 78.97989614 -315.56304502 47.19279811 -290.59741211 18.87011719 C-289.87682617 18.02707031 -289.15624023 17.18402344 -288.41381836 16.31542969 C-284.13650311 11.36274887 -279.60187597 7.07318479 -274.59741211 2.87011719 C-273.68604492 2.05929688 -272.77467773 1.24847656 -271.83569336 0.41308594 C-263.02595497 -7.36804678 -253.54658941 -13.8907176 -243.59741211 -20.12988281 C-242.9496582 -20.53980469 -242.3019043 -20.94972656 -241.63452148 -21.37207031 C-167.46564702 -67.65966108 -65.21193735 -56.33163226 0 0 Z " fill="#4349AA" transform="translate(343.597412109375,49.1298828125)"/>
<path d="M0 0 C4.47911082 -0.05856225 8.9581217 -0.09378482 13.4375 -0.125 C14.69755859 -0.14175781 15.95761719 -0.15851563 17.25585938 -0.17578125 C29.76092337 -0.24108185 38.20240542 1.08648644 47.72265625 9.52734375 C55.94561354 18.1288515 57.64933318 28.24939403 57.45532227 39.69921875 C57.01562413 51.03461511 54.19548111 60.96200844 46.6875 69.6875 C45.800625 70.450625 44.91375 71.21375 44 72 C43.43667969 72.50402344 42.87335938 73.00804687 42.29296875 73.52734375 C31.92832055 82.16103237 19.55552737 81.3932623 6.8125 81.1875 C5.17644467 81.17241891 3.54037583 81.15873659 1.90429688 81.14648438 C-2.06414197 81.11376583 -6.03191786 81.06217565 -10 81 C-9.34850148 73.46400789 -8.57255793 65.95038583 -7.6953125 58.4375 C-7.5706662 57.36612793 -7.4460199 56.29475586 -7.31759644 55.19091797 C-7.05447699 52.93529224 -6.79055978 50.67975944 -6.52587891 48.42431641 C-6.12935631 45.0372117 -5.73842049 41.64949193 -5.34765625 38.26171875 C-3.85524939 25.45359207 -2.14295189 12.71599693 0 0 Z " fill="#FBFCFD" transform="translate(47,173)"/>
<path d="M0 0 C0.33 0 0.66 0 1 0 C2.34660795 16.33226109 3.68014903 32.66555463 5 49 C5.06699097 49.82651062 5.13398193 50.65302124 5.20300293 51.50457764 C5.56048103 55.91908591 5.90908314 60.33417426 6.25 64.75 C6.32976074 65.73718018 6.40952148 66.72436035 6.49169922 67.74145508 C7.0262112 74.83392294 7.07658087 81.88932478 7 89 C3.37 89 -0.26 89 -4 89 C-5.6000495 79.71990813 -6.50204501 70.52114983 -7.0625 61.125 C-7.21765465 58.60662198 -7.37513164 56.08838576 -7.53515625 53.5703125 C-7.63389038 51.92699951 -7.63389038 51.92699951 -7.73461914 50.25048828 C-8.01584363 46.80594109 -8.47928098 43.415852 -9 40 C-9.35602295 40.66717041 -9.7120459 41.33434082 -10.07885742 42.02172852 C-28.96180374 77.36270416 -28.96180374 77.36270416 -39 94 C-41 93 -41 93 -41.77441406 90.87719727 C-42.01901367 89.94963623 -42.26361328 89.0220752 -42.515625 88.06640625 C-42.79446533 87.03314209 -43.07330566 85.99987793 -43.3605957 84.93530273 C-43.65409912 83.82227783 -43.94760254 82.70925293 -44.25 81.5625 C-46.59855313 72.88925305 -49.08467606 64.32061606 -52.04589844 55.83618164 C-54.08399478 49.95976634 -56 44.27841286 -56 38 C-56.66 38 -57.32 38 -58 38 C-58.309375 39.8871875 -58.309375 39.8871875 -58.625 41.8125 C-60.1738313 49.57862575 -62.77624631 57.04356429 -65.21533203 64.56494141 C-66.42074233 68.30568886 -67.58546156 72.05886792 -68.75 75.8125 C-70.12166058 80.22467487 -71.52478913 84.62130592 -73 89 C-76.96 89 -80.92 89 -85 89 C-84.40916482 84.04676977 -83.36463267 79.55544783 -81.82275391 74.81469727 C-81.60309464 74.13402191 -81.38343536 73.45334656 -81.15711975 72.75204468 C-80.43579249 70.52166313 -79.70632529 68.29404056 -78.9765625 66.06640625 C-78.46906362 64.50388427 -77.96202155 62.94121385 -77.45541382 61.37840271 C-76.39466146 58.1100896 -75.33018564 54.84302276 -74.26269531 51.5769043 C-72.90029462 47.40831786 -71.54445025 43.23763831 -70.19106483 39.06611729 C-68.89275309 35.06544658 -67.59097061 31.06590774 -66.2890625 27.06640625 C-66.04389515 26.31215425 -65.7987278 25.55790226 -65.54613113 24.78079414 C-60.76071347 10.0723831 -60.76071347 10.0723831 -58 3 C-55.23717526 5.76282474 -54.60138469 8.9697579 -53.5 12.625 C-52.97282765 14.33468828 -52.44546912 16.04431915 -51.91796875 17.75390625 C-51.62067871 18.72473145 -51.32338867 19.69555664 -51.01708984 20.69580078 C-49.85319734 24.47691485 -48.67232907 28.25250311 -47.48828125 32.02734375 C-47.04296425 33.44775249 -46.59765178 34.86816266 -46.15234375 36.28857422 C-45.81952393 37.35008698 -45.81952393 37.35008698 -45.47998047 38.43304443 C-42.60428902 47.60733111 -39.72998185 56.78100864 -37 66 C-33.88489649 62.33777636 -31.5151907 58.53639287 -29.3125 54.28515625 C-28.80332283 53.31888809 -28.80332283 53.31888809 -28.28385925 52.33309937 C-27.55929798 50.95690005 -26.83708212 49.57946372 -26.11703491 48.20089722 C-24.23046273 44.58933534 -22.32667815 40.98684867 -20.42578125 37.3828125 C-20.04819168 36.66566574 -19.67060211 35.94851898 -19.28157043 35.2096405 C-15.9691069 28.92342848 -12.59667867 22.67187766 -9.1875 16.4375 C-8.71505859 15.5719751 -8.24261719 14.7064502 -7.75585938 13.81469727 C-5.21892121 9.18108155 -2.63613819 4.57790897 0 0 Z " fill="#F9F9FC" transform="translate(293,165)"/>
<path d="M0 0 C2.02202647 1.41656091 3.82676206 2.90100917 5.63671875 4.578125 C6.178125 5.07828125 6.71953125 5.5784375 7.27734375 6.09375 C15.66846266 14.82390401 17.36946753 25.11415998 17.22827148 36.77880859 C16.70382584 49.60755601 11.89554604 59.66299218 2.57421875 68.54296875 C-8.32031854 77.74496185 -21.53933124 79.57154651 -35.36328125 78.578125 C-45.81833253 76.27958986 -55.24891373 70.41207317 -61.36328125 61.578125 C-68.43933131 50.0494584 -70.05163447 37.64355163 -67.30078125 24.453125 C-64.23167208 13.59650984 -57.57964775 4.83305808 -47.87890625 -0.88671875 C-32.34413037 -9.00716978 -15.15962135 -9.12083003 0 0 Z M-48.36328125 15.578125 C-49.06453125 16.361875 -49.76578125 17.145625 -50.48828125 17.953125 C-54.76894338 23.94605199 -55.92219026 29.17235842 -55.86328125 36.390625 C-55.85901123 37.18235107 -55.85474121 37.97407715 -55.8503418 38.78979492 C-55.61627232 46.85981576 -53.17578414 52.24752947 -47.98828125 58.390625 C-38.48382965 66.31100133 -30.62035226 67.64343974 -18.36328125 66.578125 C-10.77257319 64.84489592 -4.17953532 59.65225929 0.2109375 53.30078125 C5.32246279 44.49841248 5.8298671 34.95594142 4.2109375 24.9453125 C2.15734288 17.71363572 -2.62224829 11.98391998 -9.05078125 8.140625 C-22.29589031 1.89293205 -38.79742456 4.32417595 -48.36328125 15.578125 Z " fill="#FAFAFC" transform="translate(183.36328125,177.421875)"/>
<path d="M0 0 C1.79848452 2.69772679 2.65978279 4.63671194 3.64477539 7.66967773 C3.95620483 8.62104111 4.26763428 9.57240448 4.58850098 10.55259705 C5.08803284 12.10244041 5.08803284 12.10244041 5.59765625 13.68359375 C5.94832153 14.75916031 6.29898682 15.83472687 6.66027832 16.94288635 C7.7989917 20.43960206 8.93100776 23.93844159 10.0625 27.4375 C10.8362201 29.82105674 11.61022725 32.20452033 12.38452148 34.58789062 C13.90473926 39.26984594 15.42213327 43.95270297 16.9375 48.63623047 C18.42475201 53.23029066 19.92053671 57.82140708 21.42701721 62.40919495 C22.08997742 64.42848221 22.75051656 66.4485404 23.40991211 68.46899414 C24.15683141 70.75721567 24.90741705 73.04424498 25.66235352 75.32983398 C25.98131592 76.31411377 26.30027832 77.29839355 26.62890625 78.3125 C26.89775635 79.13363281 27.16660645 79.95476562 27.44360352 80.80078125 C28 83 28 83 28 87 C24.04 87 20.08 87 16 87 C13.03 78.09 13.03 78.09 10 69 C-0.56 68.67 -11.12 68.34 -22 68 C-22.66 69.98 -23.32 71.96 -24 74 C-25.16492415 76.31403485 -26.3747085 78.60595246 -27.625 80.875 C-28.25664062 82.02742188 -28.88828125 83.17984375 -29.5390625 84.3671875 C-30.02117187 85.23601562 -30.50328125 86.10484375 -31 87 C-35.29 87 -39.58 87 -44 87 C-41.74995265 80.24985794 -41.74995265 80.24985794 -40.06738281 76.98364258 C-39.6917923 76.24944595 -39.31620178 75.51524933 -38.92922974 74.75880432 C-38.52461517 73.97859421 -38.12000061 73.19838409 -37.703125 72.39453125 C-37.2774826 71.56553818 -36.85184021 70.7365451 -36.41329956 69.88243103 C-35.02968429 67.19029437 -33.63997935 64.50135553 -32.25 61.8125 C-31.29378636 59.95556927 -30.33789623 58.09847192 -29.38232422 56.24121094 C-27.02347402 51.65936998 -24.65941562 47.08024271 -22.29309082 42.5022583 C-21.11199534 40.21672203 -19.9321142 37.93056561 -18.75292969 35.64404297 C-16.87941763 32.01141673 -15.00307941 28.38026732 -13.125 24.75 C-12.5980957 23.73139893 -12.07119141 22.71279785 -11.52832031 21.66333008 C-7.75874945 14.40200356 -3.89503204 7.19460835 0 0 Z " fill="#FAFBFD" transform="translate(354,167)"/>
<path d="M0 0 C20.97089686 -0.64342524 20.97089686 -0.64342524 26.91796875 4.734375 C33.17876001 11.39534054 35.57428614 17.67668801 35.5 26.6875 C35.49572998 27.47479492 35.49145996 28.26208984 35.48706055 29.07324219 C35.21088637 38.63296749 31.9973552 47.33585219 25 54 C19.89368753 57.5617394 15.41429599 59.13727113 9.234375 59.09765625 C8.34492187 59.09443359 7.45546875 59.09121094 6.5390625 59.08789062 C5.15847656 59.07532227 5.15847656 59.07532227 3.75 59.0625 C2.34621094 59.05573242 2.34621094 59.05573242 0.9140625 59.04882812 C-1.39069041 59.03706918 -3.69531227 59.02063426 -6 59 C-5.66013721 46.45906305 -4.20623294 34.13591517 -2.45996094 21.72412109 C-1.44423194 14.49156108 -0.57062167 7.28199597 0 0 Z " fill="#454BAA" transform="translate(57,184)"/>
<path d="M0 0 C2 1 2 1 2.86962891 3.05371094 C3.15241699 3.93833008 3.43520508 4.82294922 3.7265625 5.734375 C4.190625 7.18457031 4.190625 7.18457031 4.6640625 8.6640625 C4.98117187 9.68242187 5.29828125 10.70078125 5.625 11.75 C6.11226563 13.25433594 6.11226563 13.25433594 6.609375 14.7890625 C8.105757 19.52970129 9 22.94467628 9 28 C1.74 28 -5.52 28 -13 28 C-11.67582127 24.02746381 -10.42924068 20.5762361 -8.65234375 16.85546875 C-8.21212891 15.93185547 -7.77191406 15.00824219 -7.31835938 14.05664062 C-6.86267578 13.10982422 -6.40699219 12.16300781 -5.9375 11.1875 C-5.47794922 10.22134766 -5.01839844 9.25519531 -4.54492188 8.25976562 C-1.13547633 1.13547633 -1.13547633 1.13547633 0 0 Z " fill="#4B51AD" transform="translate(351,197)"/>
</svg>
